<svg width="1280" height="640" viewBox="0 0 1280 640" fill="none" xmlns="http://www.w3.org/2000/svg" role="img" aria-labelledby="title desc">
  <title id="title">Shadowsec profile banner</title>
  <desc id="desc">Dark terminal-style banner for Vivek Mahajan with offensive security branding.</desc>
  <rect width="1280" height="640" fill="#050507"/>
  <rect width="1280" height="640" fill="url(#bgGlow)"/>
  <g opacity="0.18" stroke="#FF4D6D">
    <path d="M0 80H1280"/>
    <path d="M0 160H1280"/>
    <path d="M0 240H1280"/>
    <path d="M0 320H1280"/>
    <path d="M0 400H1280"/>
    <path d="M0 480H1280"/>
    <path d="M0 560H1280"/>
    <path d="M80 0V640"/>
    <path d="M240 0V640"/>
    <path d="M400 0V640"/>
    <path d="M560 0V640"/>
    <path d="M720 0V640"/>
    <path d="M880 0V640"/>
    <path d="M1040 0V640"/>
    <path d="M1200 0V640"/>
  </g>
  <rect x="72" y="72" width="1136" height="496" rx="28" fill="#0E0A11" fill-opacity="0.84" stroke="#FF4D6D" stroke-opacity="0.35"/>
  <rect x="72" y="72" width="1136" height="56" rx="28" fill="#140F18"/>
  <circle cx="112" cy="100" r="8" fill="#FF5F57"/>
  <circle cx="140" cy="100" r="8" fill="#FEBC2E"/>
  <circle cx="168" cy="100" r="8" fill="#28C840"/>
  <text x="210" y="106" fill="#F2EEF5" fill-opacity="0.72" font-family="ui-monospace, SFMono-Regular, Menlo, Monaco, Consolas, Liberation Mono, monospace" font-size="18">~/github/profile</text>
  <text x="1038" y="106" fill="#FF8A5A" font-family="ui-monospace, SFMono-Regular, Menlo, Monaco, Consolas, Liberation Mono, monospace" font-size="16">operator profile</text>
  <text x="120" y="186" fill="#FF4D6D" font-family="ui-monospace, SFMono-Regular, Menlo, Monaco, Consolas, Liberation Mono, monospace" font-size="22">$ whoami</text>
  <text x="120" y="286" fill="#FF4D6D" font-family="Segoe UI, Arial, sans-serif" font-size="68" font-weight="700">Vivek</text>
  <text x="372" y="286" fill="#FFB7A1" font-family="Segoe UI, Arial, sans-serif" font-size="68" font-weight="700">Mahajan</text>
  <text x="120" y="336" fill="#F2EEF5" fill-opacity="0.92" font-family="Segoe UI, Arial, sans-serif" font-size="28">Offensive Security Consultant</text>
  <text x="120" y="394" fill="#F2EEF5" fill-opacity="0.76" font-family="Segoe UI, Arial, sans-serif" font-size="24">Red teaming, web and API exploitation, cloud attack paths, and</text>
  <text x="120" y="430" fill="#F2EEF5" fill-opacity="0.76" font-family="Segoe UI, Arial, sans-serif" font-size="24">leadership-ready remediation for high-risk environments.</text>
  <g>
    <rect x="120" y="478" width="202" height="42" rx="21" fill="#1A121B" stroke="#FF4D6D" stroke-opacity="0.45"/>
    <text x="145" y="505" fill="#FFF4F7" font-family="ui-monospace, SFMono-Regular, Menlo, Monaco, Consolas, Liberation Mono, monospace" font-size="18">offensive security</text>
    <rect x="338" y="478" width="146" height="42" rx="21" fill="#1A121B" stroke="#FF8A5A" stroke-opacity="0.45"/>
    <text x="375" y="505" fill="#FFF4F7" font-family="ui-monospace, SFMono-Regular, Menlo, Monaco, Consolas, Liberation Mono, monospace" font-size="18">red teaming</text>
    <rect x="500" y="478" width="166" height="42" rx="21" fill="#1A121B" stroke="#FF4D6D" stroke-opacity="0.45"/>
    <text x="528" y="505" fill="#FFF4F7" font-family="ui-monospace, SFMono-Regular, Menlo, Monaco, Consolas, Liberation Mono, monospace" font-size="18">web / mobile / API</text>
    <rect x="682" y="478" width="90" height="42" rx="21" fill="#1A121B" stroke="#FF8A5A" stroke-opacity="0.45"/>
    <text x="711" y="505" fill="#FFF4F7" font-family="ui-monospace, SFMono-Regular, Menlo, Monaco, Consolas, Liberation Mono, monospace" font-size="18">cloud</text>
  </g>
  <g filter="url(#glow)">
    <rect x="872" y="190" width="252" height="188" rx="24" fill="#120D15" stroke="#FF4D6D" stroke-opacity="0.4"/>
  </g>
  <text x="904" y="232" fill="#F2EEF5" fill-opacity="0.72" font-family="ui-monospace, SFMono-Regular, Menlo, Monaco, Consolas, Liberation Mono, monospace" font-size="18">$ cat focus.txt</text>
  <text x="904" y="278" fill="#FFF4F7" font-family="Segoe UI, Arial, sans-serif" font-size="22">[01] External attack-surface mapping</text>
  <text x="904" y="316" fill="#FFF4F7" font-family="Segoe UI, Arial, sans-serif" font-size="22">[02] Web and API exploit paths</text>
  <text x="904" y="354" fill="#FFF4F7" font-family="Segoe UI, Arial, sans-serif" font-size="22">[03] Privilege escalation simulation</text>
  <text x="904" y="392" fill="#FFF4F7" font-family="Segoe UI, Arial, sans-serif" font-size="22">[04] Remediation handoff</text>
  <defs>
    <radialGradient id="bgGlow" cx="0" cy="0" r="1" gradientUnits="userSpaceOnUse" gradientTransform="translate(236 66) rotate(32.5797) scale(843.266 540.66)">
      <stop stop-color="#FF4D6D" stop-opacity="0.30"/>
      <stop offset="0.54" stop-color="#FF8A5A" stop-opacity="0.14"/>
      <stop offset="1" stop-color="#050507" stop-opacity="0"/>
    </radialGradient>
    <filter id="glow" x="848" y="166" width="300" height="236" filterUnits="userSpaceOnUse" color-interpolation-filters="sRGB">
      <feFlood flood-opacity="0" result="BackgroundImageFix"/>
      <feBlend mode="normal" in="SourceGraphic" in2="BackgroundImageFix" result="shape"/>
      <feGaussianBlur stdDeviation="12" result="effect1_foregroundBlur_1_1"/>
    </filter>
  </defs>
</svg>
